<svg width="16" height="16" viewBox="0 0 415 605" fill="none" xmlns="http://www.w3.org/2000/svg">
  <path d="M207.5 302.5C207.5 277.305 217.509 253.141 235.325 235.325C253.141 217.509 277.304 207.5 302.5 207.5C327.696 207.5 351.859 217.509 369.675 235.325C387.491 253.141 397.5 277.305 397.5 302.5C397.5 327.696 387.491 351.859 369.675 369.675C351.859 387.491 327.696 397.5 302.5 397.5C277.304 397.5 253.141 387.491 235.325 369.675C217.509 351.859 207.5 327.696 207.5 302.5V302.5Z" stroke="#C5C5C5" stroke-width="35"/>
  <path d="M17.5 492.5C17.5 467.304 27.5089 443.141 45.3249 425.325C63.1408 407.509 87.3044 397.5 112.5 397.5H207.5V492.5C207.5 517.696 197.491 541.859 179.675 559.675C161.859 577.491 137.696 587.5 112.5 587.5C87.3044 587.5 63.1408 577.491 45.3249 559.675C27.5089 541.859 17.5 517.696 17.5 492.5Z" stroke="#C5C5C5" stroke-width="35"/>
  <path d="M207.5 17.5001V207.5H302.5C327.696 207.5 351.859 197.491 369.675 179.675C387.491 161.859 397.5 137.696 397.5 112.5C397.5 87.3045 387.491 63.1409 369.675 45.3249C351.859 27.509 327.696 17.5001 302.5 17.5001L207.5 17.5001Z" stroke="#C5C5C5" stroke-width="35"/>
  <path d="M17.5002 112.5C17.5002 137.696 27.5091 161.859 45.325 179.675C63.141 197.491 87.3046 207.5 112.5 207.5H207.5V17.5H112.5C87.3046 17.5 63.141 27.5089 45.325 45.3249C27.5091 63.1408 17.5002 87.3044 17.5002 112.5Z" stroke="#C5C5C5" stroke-width="35"/>
  <path d="M17.5 302.5C17.5 327.696 27.5089 351.859 45.3249 369.675C63.1408 387.491 87.3044 397.5 112.5 397.5H207.5V207.5H112.5C87.3044 207.5 63.1408 217.509 45.3249 235.325C27.5089 253.141 17.5 277.305 17.5 302.5Z" stroke="#C5C5C5" stroke-width="35"/>
</svg>
